<svg xmlns="http://www.w3.org/2000/svg" width="12" height="12" viewBox="0 0 12 12" fill="none">
  <path d="M6 12C9.31371 12 12 9.31371 12 6C12 2.68629 9.31371 0 6 0C2.68629 0 0 2.68629 0 6C0 9.31371 2.68629 12 6 12Z" fill="#2A872E"/>
  <path fill-rule="evenodd" clip-rule="evenodd" d="M4.12649 8.92613L1.9321 6.57749C1.63167 6.25594 1.64892 5.74722 1.97046 5.44679C2.292 5.14637 2.80073 5.16366 3.10115 5.48516L4.79381 7.29678L7.47307 4.79345C7.49717 4.77092 7.52235 4.75027 7.54838 4.73128L8.80833 3.5541C9.12988 3.25368 9.63865 3.27097 9.93903 3.59251C10.2395 3.91401 10.2222 4.42278 9.90066 4.7232L6.05244 8.31871L6.04833 8.31432L4.71718 9.55807L4.12649 8.92613Z" fill="white"/>
</svg>
