<svg width="12" height="14" viewBox="0 0 12 14" fill="none" xmlns="http://www.w3.org/2000/svg">
  <path d="M10 14C9.44444 14 8.97222 13.7958 8.58333 13.3875C8.19444 12.9792 8 12.4833 8 11.9C8 11.83 8.01667 11.6667 8.05 11.41L3.36667 8.54C3.18889 8.715 2.98333 8.8522 2.75 8.9516C2.51667 9.051 2.26667 9.10047 2 9.1C1.44444 9.1 0.972222 8.89583 0.583333 8.4875C0.194444 8.07917 0 7.58333 0 7C0 6.41667 0.194444 5.92083 0.583333 5.5125C0.972222 5.10417 1.44444 4.9 2 4.9C2.26667 4.9 2.51667 4.9497 2.75 5.0491C2.98333 5.1485 3.18889 5.28547 3.36667 5.46L8.05 2.59C8.02778 2.50833 8.014 2.4297 8.00867 2.3541C8.00333 2.2785 8.00044 2.1938 8 2.1C8 1.51667 8.19444 1.02083 8.58333 0.6125C8.97222 0.204167 9.44444 0 10 0C10.5556 0 11.0278 0.204167 11.4167 0.6125C11.8056 1.02083 12 1.51667 12 2.1C12 2.68333 11.8056 3.17917 11.4167 3.5875C11.0278 3.99583 10.5556 4.2 10 4.2C9.73333 4.2 9.48333 4.1503 9.25 4.0509C9.01667 3.9515 8.81111 3.81453 8.63333 3.64L3.95 6.51C3.97222 6.59167 3.98622 6.67053 3.992 6.7466C3.99778 6.82267 4.00044 6.90713 4 7C3.99956 7.09287 3.99689 7.17757 3.992 7.2541C3.98711 7.33063 3.97311 7.40927 3.95 7.49L8.63333 10.36C8.81111 10.185 9.01667 10.048 9.25 9.9491C9.48333 9.85017 9.73333 9.80047 10 9.8C10.5556 9.8 11.0278 10.0042 11.4167 10.4125C11.8056 10.8208 12 11.3167 12 11.9C12 12.4833 11.8056 12.9792 11.4167 13.3875C11.0278 13.7958 10.5556 14 10 14ZM10 12.6C10.1889 12.6 10.3473 12.533 10.4753 12.3991C10.6033 12.2652 10.6671 12.0988 10.6667 11.9C10.6662 11.7012 10.6022 11.5351 10.4747 11.4016C10.3471 11.2681 10.1889 11.2009 10 11.2C9.81111 11.1991 9.65289 11.2663 9.52533 11.4016C9.39778 11.5369 9.33378 11.7031 9.33333 11.9C9.33289 12.0969 9.39689 12.2633 9.52533 12.3991C9.65378 12.5349 9.812 12.6019 10 12.6ZM2 7.7C2.18889 7.7 2.34733 7.6328 2.47533 7.4984C2.60333 7.364 2.66711 7.19787 2.66667 7C2.66622 6.80213 2.60222 6.636 2.47467 6.5016C2.34711 6.3672 2.18889 6.3 2 6.3C1.81111 6.3 1.65289 6.3672 1.52533 6.5016C1.39778 6.636 1.33378 6.80213 1.33333 7C1.33289 7.19787 1.39689 7.36423 1.52533 7.4991C1.65378 7.63397 1.812 7.70093 2 7.7ZM10 2.8C10.1889 2.8 10.3473 2.7328 10.4753 2.5984C10.6033 2.464 10.6671 2.29787 10.6667 2.1C10.6662 1.90213 10.6022 1.736 10.4747 1.6016C10.3471 1.4672 10.1889 1.4 10 1.4C9.81111 1.4 9.65289 1.4672 9.52533 1.6016C9.39778 1.736 9.33378 1.90213 9.33333 2.1C9.33289 2.29787 9.39689 2.46423 9.52533 2.5991C9.65378 2.73397 9.812 2.80093 10 2.8Z" fill="#000066"/>
</svg>
